<svg width="70" height="100" viewBox="0 0 70 100" fill="none" xmlns="http://www.w3.org/2000/svg">
<path d="M9.44043 90.0878H10.7349C10.9515 88.9876 11.1496 87.6741 11.3251 86.2706H64.8387C64.9456 87.5079 65.0334 88.7729 65.0868 90.0878H65.1748C67.8386 90.0878 70 92.3062 70 95.0438C70 97.7815 67.8386 99.9999 65.1748 99.9999H9.44043C6.77668 99.9999 4.61527 97.7815 4.61527 95.0438C4.61527 92.3062 6.77668 90.0878 9.44043 90.0878Z" fill="#FFD600"/>
<path d="M61.179 41.935C60.8053 42.4788 60.2333 42.8483 59.5924 42.9614C58.9547 43.0744 58.295 42.9211 57.7642 42.5354L49.006 36.1659C47.9254 35.3788 46.4522 35.4786 45.4782 36.4063C43.094 38.6745 39.7358 39.5169 36.6039 38.6343C34.1944 37.9567 32.1966 36.3225 30.9716 34.156C30.5129 37.7874 32.2406 43.4066 42.8145 50.4778C52.6064 57.0262 58.7632 63.8312 62.0836 73.0544H11.3786C10.7945 67.761 9.43434 61.8937 6.60678 55.7758C0.69797 45.9055 -5.9396 27.9559 9.57553 11.3227C22.5245 -2.55826 34.0435 -0.901245 40.5026 1.94142C43.6438 3.3221 45.1361 6.98279 43.9549 10.2447L51.199 3.3528C51.604 2.96733 52.2103 2.90281 52.6878 3.19451C53.1623 3.48827 53.3917 4.06917 53.2501 4.61916L50.8596 13.9505C51.733 14.6909 52.5341 15.5218 53.1562 16.522L64.3802 34.5767C64.9142 35.4398 64.8892 36.5483 64.3143 37.3839L61.179 41.935Z" fill="#FFD600"/>
<path d="M66.0712 82.9664H9.44161C7.66375 82.9664 6.22483 81.4868 6.22483 79.6623C6.22483 77.8379 7.66375 76.3583 9.44161 76.3583H66.0712C67.849 76.3583 69.288 77.8379 69.288 79.6623C69.2878 81.487 67.849 82.9664 66.0712 82.9664Z" fill="#FFD600"/>
</svg>
